<svg width="571" height="388" viewBox="0 0 571 388" fill="none" xmlns="http://www.w3.org/2000/svg">
<g opacity="0.15">
<path d="M336.621 29.3841L285.436 59.1105H285.413L234 29.7492L285.185 0L336.621 29.3841Z" fill="#B09CD6"/>
<path d="M336.62 29.3843L336.826 88.4948L285.619 118.267L285.413 59.1106H285.436L336.62 29.3843Z" fill="#937AC1"/>
<path d="M285.413 59.1103L285.619 118.266L234.229 88.8595L234 29.749L285.413 59.1103Z" fill="#5C4091"/>
<path fill-rule="evenodd" clip-rule="evenodd" d="M312.652 71.0822C313.489 69.6305 315.345 69.1323 316.797 69.9694L493.597 171.924C495.049 172.762 495.547 174.617 494.71 176.069C493.873 177.52 492.017 178.019 490.566 177.182L313.765 75.2265C312.313 74.3894 311.815 72.5339 312.652 71.0822Z" fill="#7B68AD"/>
<path d="M570.059 163.172L518.875 192.899H518.852L467.439 163.537L518.623 133.788L570.059 163.172Z" fill="#B09CD6"/>
<path d="M570.059 163.172L570.264 222.283L519.057 252.055L518.852 192.899H518.874L570.059 163.172Z" fill="#937AC1"/>
<path d="M518.851 192.898L519.057 252.055L467.667 222.648L467.438 163.537L518.851 192.898Z" fill="#5C4091"/>
<path fill-rule="evenodd" clip-rule="evenodd" d="M492.888 211.669C493.724 213.121 493.226 214.977 491.774 215.813L338.035 304.419C336.583 305.256 334.727 304.757 333.891 303.305C333.054 301.853 333.552 299.998 335.004 299.161L488.744 210.556C490.196 209.719 492.051 210.217 492.888 211.669Z" fill="#7B68AD"/>
<path fill-rule="evenodd" clip-rule="evenodd" d="M258.64 77.5532C259.477 79.0051 258.978 80.8605 257.526 81.6973L103.787 170.303C102.335 171.139 100.48 170.641 99.6431 169.189C98.8063 167.737 99.3049 165.882 100.757 165.045L254.496 76.4394C255.948 75.6026 257.803 76.1013 258.64 77.5532Z" fill="#7B68AD"/>
<path d="M102.621 164.264L51.4363 193.99H51.4134L0.000488281 164.629L51.1848 134.88L102.621 164.264Z" fill="#B09CD6"/>
<path d="M102.62 164.264L102.826 223.375L51.6188 253.147L51.4131 193.991H51.4359L102.62 164.264Z" fill="#937AC1"/>
<path d="M51.4129 193.99L51.6187 253.146L0.228604 223.739L0 164.629L51.4129 193.99Z" fill="#5C4091"/>
<path fill-rule="evenodd" clip-rule="evenodd" d="M80.8319 208.232C81.669 206.78 83.5245 206.282 84.9762 207.119L261.777 309.074C263.229 309.911 263.727 311.767 262.89 313.219C262.052 314.67 260.197 315.169 258.745 314.331L81.9446 212.376C80.4929 211.539 79.9947 209.684 80.8319 208.232Z" fill="#7B68AD"/>
<path d="M336.622 298.598L285.437 328.324H285.414L234.001 298.963L285.186 269.214L336.622 298.598Z" fill="#B09CD6"/>
<path d="M336.62 298.598L336.826 357.709L285.619 387.481L285.413 328.324H285.436L336.62 298.598Z" fill="#937AC1"/>
<path d="M285.413 328.324L285.619 387.48L234.229 358.073L234 298.963L285.413 328.324Z" fill="#5C4091"/>
</g>
</svg>
