<svg xmlns="http://www.w3.org/2000/svg" viewBox="0 0 5690.19 1020.29"><defs><style>.cls-1{fill:#fff;}.cls-2{fill:#ffad01;}.cls-3{fill:#535a6a;}</style></defs><g id="Layer_2" data-name="Layer 2"><g id="Layer_1-2" data-name="Layer 1"><path class="cls-1" d="M556.42,20.56V216.5H405.22V999.73H150.6V216.5H0V20.56Z"/><path class="cls-1" d="M1196.3,593.91q0,147.55-7,209t-43.55,112.18q-36.6,50.81-98.88,78t-145.15,27.23q-78.63,0-141.23-25.71T659.85,917.47q-38.13-51.39-45.37-111.89t-7.25-211.67V426.38q0-147.57,6.94-209t43.55-112.2q36.6-50.81,98.89-78T901.76,0Q980.38,0,1043,25.7t100.7,77.11q38.1,51.41,45.36,111.88t7.26,211.69ZM941.67,272.15q0-68.34-7.55-87.39t-31.15-19q-20,0-30.54,15.42t-10.58,91V729.37q0,85.29,6.94,105.24t32.36,20q26,0,33.27-23t7.25-109.46Z"/><path class="cls-1" d="M1898.17,20.56,1752.1,462.66l160,537.07H1649L1545.86,580V999.73H1291.25V20.56h254.61V401L1659.27,20.56Z"/><path class="cls-1" d="M1955.92,20.56h424.55V216.5H2210.52V402.18h159.07V588.46H2210.52V803.77h186.89v196H1955.92Z"/><path class="cls-1" d="M3039.12,20.56V999.73H2815.94L2683.5,554.59V999.73H2470.61V20.56H2683.5l142.72,440.9V20.56Z"/><path class="cls-1" d="M3296.75,800.15V999.73H3112.29V800.15Z"/><path class="cls-2" d="M3369.93,20.56h190.51q184.44,0,249.48,16.93t98.87,55.64q33.89,38.72,42.34,86.19t8.47,186.57V708.81q0,131.87-12.39,176.31T3904,954.66q-30.84,25.13-76.2,35.08t-136.68,10H3369.93Zm254.61,167.53V832.2q55,0,67.75-22.07T3705,690.07V309.65q0-66.52-4.24-85.27t-19.35-27.52Q3666.27,188.08,3624.54,188.09Z"/><path class="cls-2" d="M5690.19,381H5435.58V292.11q0-84.06-7.26-105.24t-34.48-21.16q-23.6,0-32.05,18.14T5353.33,277V746.91q0,66,8.46,86.8t33.86,20.86q27.84,0,37.81-23.58t10-91.93V622.94H5392V474.15h298.16V999.73h-160l-23.55-70.16q-26,45.36-65.66,68t-93.51,22.67a243.13,243.13,0,0,1-120.15-31.15q-56-31.14-85-77.11T5106,815.56q-7.28-50.47-7.26-151.5V373.15q0-140.29,15.11-203.82t86.79-116.41Q5272.28,0,5386,0q111.89,0,185.67,46t96.16,109.17q22.36,63.18,22.37,183.55Z"/><g id="Group-52"><circle id="Oval-10" class="cls-2" cx="4529.16" cy="510.14" r="510.14"/><path id="Combined-Shape" class="cls-1" d="M4377.85,997.49a510.15,510.15,0,0,1-358.19-477.58c52.43-15.84,104.74-38,132.31-67.4,67.3-72,69.58-76,108.55-173.67q38.41-97.68,119.39-141.1l12.7,187.88q98.55,5.65,137.2,9.45a187.1,187.1,0,0,1,107.34,52.64c20.19,18.45,33.65,41.46,43.42,81.08.54,2.17,5.32,15.41,10.85,18.45a81.81,81.81,0,0,0,20,5.32l199.28,37.77A22.8,22.8,0,0,1,4923.41,560c-.05.11-.09.23-.14.34-11.4,45.8-14.22,76-32.56,111.36-31.15,59.16-124.17,87.7-158.58,91.07-21.06,2.06-99.53,3.15-235.32,0-24.1,0-35.28,10.85-52,31.91S4373,900.24,4377.85,997.49Z"/><path id="Combined-Shape-2" class="cls-3" d="M4859.23,521l52,9.88A22.79,22.79,0,0,1,4924,560.49c0,.11-.09.23-.14.34-4.23,17-7.27,31.91-10.85,45.7a121.17,121.17,0,0,1-59.48-16.07,28.08,28.08,0,0,1-10-24.85A93.82,93.82,0,0,1,4859.23,521Z"/><circle id="Oval-8" class="cls-3" cx="4543.27" cy="452.62" r="42.33"/></g></g></g></svg>